<svg width="133" height="75" viewBox="0 0 133 75" fill="none" xmlns="http://www.w3.org/2000/svg">
<g opacity="0.05" clip-path="url(#clip0_14_387)">
<path d="M132.905 7.35064C132.839 4.80243 132.595 2.27638 132.218 -0.205349L119.056 -2.37687L114.603 -14.8298L123.377 -24.8897C120.718 -29.3214 117.55 -33.3764 113.982 -37.0546L102.061 -31.0719L91.1148 -38.5171L92.2892 -51.8121C87.7467 -53.6955 82.9605 -55.1358 77.9749 -56L71.7706 -44.1675L58.5421 -43.8572L51.7395 -55.3796C46.6652 -54.2273 41.7904 -52.499 37.2258 -50.261L39.1757 -37.0546L28.6726 -29.0112L16.4412 -34.2627C13.0732 -30.4071 10.1483 -26.1749 7.73303 -21.5881L17.0617 -12.0601L13.2948 0.59235L0.287832 3.53941C0.0440901 6.15409 -0.0445432 8.83524 0.0440901 11.5607C0.132723 14.0424 0.354307 16.4799 0.686681 18.8951L13.8487 21.111L18.2582 33.5639L9.43922 43.6016C12.0982 48.0333 15.2669 52.1548 18.8343 55.8109L30.7777 49.8503L41.7017 57.3176L40.4609 70.6348C45.1363 72.6069 50.0776 74.1136 55.2183 74.9778L61.3783 63.101L74.6068 62.7243L81.4316 74.2245C86.5059 73.0501 91.3585 71.2995 95.9231 69.0394L93.9289 55.833L104.41 47.7453L116.663 52.9968C120.031 49.1191 122.956 44.8647 125.349 40.3001L115.976 30.8163L119.677 18.0974L132.706 15.1504C132.928 12.6022 132.994 9.98747 132.905 7.35064ZM86.1292 31.8356C73.787 42.671 54.9524 41.5188 44.0727 29.1101C33.2373 16.7236 34.4338 -2.08881 46.8203 -12.9242C59.1403 -23.8261 77.9749 -22.6074 88.8325 -10.2431C99.7565 2.14343 98.4935 21.0002 86.1292 31.8356Z" fill="white"/>
</g>
<defs>
<clipPath id="clip0_14_387">
<rect width="132.95" height="131" fill="white" transform="translate(0 -56)"/>
</clipPath>
</defs>
</svg>
