<svg width="75" height="74" viewBox="0 0 75 74" fill="none" xmlns="http://www.w3.org/2000/svg">
<path d="M48.7863 49.0781H28.0771" stroke="white" stroke-width="1.5" stroke-miterlimit="10" stroke-linecap="round" stroke-linejoin="round"/>
<path d="M27.2141 49.0843C27.2141 50.9906 25.6688 52.5358 23.7625 52.5358C21.8563 52.5358 20.311 50.9905 20.311 49.0843C20.311 47.1781 21.8563 45.6328 23.7625 45.6328C25.6688 45.6328 27.2141 47.1781 27.2141 49.0843Z" stroke="white" stroke-width="1.5" stroke-miterlimit="10" stroke-linecap="round" stroke-linejoin="round"/>
<path d="M55.6892 49.0843C55.6892 50.9906 54.144 52.5358 52.2377 52.5358C50.3315 52.5358 48.7861 50.9905 48.7861 49.0843C48.7861 47.1781 50.3315 45.6328 52.2377 45.6328C54.1439 45.6328 55.6892 47.1781 55.6892 49.0843Z" stroke="white" stroke-width="1.5" stroke-miterlimit="10" stroke-linecap="round" stroke-linejoin="round"/>
<circle cx="23.7622" cy="49.0781" r="0.859375" fill="white"/>
<circle cx="52.2378" cy="49.0781" r="0.859375" fill="white"/>
<path d="M20.3109 49.0827H18.5852C17.632 49.0827 16.8594 48.3101 16.8594 47.357V42.1797H45.3345" stroke="white" stroke-width="1.5" stroke-miterlimit="10" stroke-linecap="round" stroke-linejoin="round"/>
<path d="M45.3345 49.0798V27.5078H50.5118L59.1406 37.8624V47.3541C59.1406 48.3073 58.368 49.0798 57.4148 49.0798H55.6891" stroke="white" stroke-width="1.5" stroke-miterlimit="10" stroke-linecap="round" stroke-linejoin="round"/>
<path d="M53.388 30.9609H48.7861V37.864H59.1407" stroke="white" stroke-width="1.5" stroke-miterlimit="10" stroke-linecap="round" stroke-linejoin="round"/>
<path d="M16.8594 42.1779V23.1945C16.8594 22.2413 17.632 21.4688 18.5852 21.4688H43.6088C44.5619 21.4688 45.3345 22.2413 45.3345 23.1945V27.509" stroke="white" stroke-width="1.5" stroke-miterlimit="10" stroke-linecap="round" stroke-linejoin="round"/>
<path d="M16.8594 24.9219H45.3345" stroke="white" stroke-width="1.5" stroke-miterlimit="10" stroke-linecap="round" stroke-linejoin="round"/>
<path d="M16.8594 38.7266H45.3345" stroke="white" stroke-width="1.5" stroke-miterlimit="10" stroke-linecap="round" stroke-linejoin="round"/>
<path d="M59.1405 43.0391H55.689" stroke="white" stroke-width="1.5" stroke-miterlimit="10" stroke-linecap="round" stroke-linejoin="round"/>
<path d="M37.605 0.75C57.4557 0.75 73.5452 16.8021 73.5454 36.5996C73.5454 56.3973 57.4558 72.4502 37.605 72.4502C17.7544 72.4499 1.66553 56.3971 1.66553 36.5996C1.66574 16.8023 17.7545 0.750255 37.605 0.75Z" stroke="white" stroke-width="1.5"/>
</svg>
