<svg width="40" height="40" viewBox="0 0 40 40" fill="none" xmlns="http://www.w3.org/2000/svg">
<g clip-path="url(#clip0_23_97)">
<path d="M38.3474 20.4476L25.6738 33.1212C25.456 33.3389 25.1839 33.4587 24.8572 33.4805C24.5306 33.5023 24.2475 33.3934 24.008 33.1538C23.7684 32.9143 23.6486 32.6203 23.6486 32.2719C23.6486 31.9235 23.7575 31.6404 23.9753 31.4227L34.6237 20.7742L1.69852 20.7742C1.35011 20.7742 1.05613 20.6545 0.816597 20.4149C0.577062 20.1754 0.457294 19.9032 0.457294 19.5983C0.457294 19.2935 0.577062 19.0213 0.816597 18.7817C1.05613 18.5422 1.35011 18.4224 1.69852 18.4224L34.6237 18.4224L23.9753 7.774C23.7575 7.55624 23.6486 7.27316 23.6486 6.92474C23.6486 6.57633 23.7684 6.28235 24.008 6.04282C24.2475 5.80328 24.5306 5.6944 24.8572 5.71618C25.1839 5.73796 25.456 5.85772 25.6738 6.07548L38.3474 18.7491C38.6087 19.0104 38.7394 19.2935 38.7394 19.5983C38.7394 19.9032 38.6087 20.1863 38.3474 20.4476Z" fill="#005934"/>
</g>
<defs>
<clipPath id="clip0_23_97">
<rect width="27.7162" height="27.7162" fill="white" transform="matrix(0.707107 0.707107 0.707107 -0.707107 0 19.5983)"/>
</clipPath>
</defs>
</svg>
