<svg width="75" height="74" viewBox="0 0 75 74" fill="none" xmlns="http://www.w3.org/2000/svg">
<path d="M57.5 55.474H35.6655V32.75L57.5 40.0282V55.474Z" stroke="white" stroke-width="1.5" stroke-miterlimit="10" stroke-linecap="round" stroke-linejoin="round"/>
<path d="M35.6656 55.4903H18.5215V42.3087L35.6656 36.5938" stroke="white" stroke-width="1.5" stroke-miterlimit="10" stroke-linecap="round" stroke-linejoin="round"/>
<path d="M49.145 36.8957L49.6998 22.0781H54.5519L55.1794 38.9069" stroke="white" stroke-width="1.5" stroke-miterlimit="10" stroke-linecap="round" stroke-linejoin="round"/>
<path d="M49.0093 45.2891H44.1572V55.4785H49.0093V45.2891Z" stroke="white" stroke-width="1.5" stroke-miterlimit="10" stroke-linecap="round" stroke-linejoin="round"/>
<path d="M29.5201 45.2891H24.668V50.1412H29.5201V45.2891Z" stroke="white" stroke-width="1.5" stroke-miterlimit="10" stroke-linecap="round" stroke-linejoin="round"/>
<path d="M23.5298 24.1653L25.3213 25.9568L28.3873 22.8906" stroke="white" stroke-width="1.5" stroke-miterlimit="10" stroke-linecap="round" stroke-linejoin="round"/>
<path d="M26.0423 31.5415C30.1959 31.5415 33.563 28.1744 33.563 24.0208C33.563 19.8672 30.1959 16.5 26.0423 16.5C21.8886 16.5 18.5215 19.8672 18.5215 24.0208C18.5215 28.1744 21.8886 31.5415 26.0423 31.5415Z" stroke="white" stroke-width="1.5" stroke-miterlimit="10" stroke-linecap="round" stroke-linejoin="round"/>
<path d="M50.1697 26.9295H54.1037" stroke="white" stroke-width="1.5" stroke-miterlimit="10" stroke-linecap="round" stroke-linejoin="round"/>
<circle cx="37.4398" cy="36.6" r="35.85" stroke="white" stroke-width="1.5"/>
</svg>
