<svg width="74" height="75" viewBox="0 0 74 75" fill="none" xmlns="http://www.w3.org/2000/svg">
<path d="M37.1348 17.6944C37.1162 16.9826 37.0481 16.2771 36.9428 15.5839L33.265 14.9774L32.0204 11.4992L34.4724 8.68937C33.7294 7.45156 32.8439 6.31898 31.8471 5.2916L28.5159 6.96263L25.4572 4.88313L25.7854 1.16972C24.5161 0.643657 23.1787 0.241371 21.7856 0L20.0519 3.30493L16.3555 3.39158L14.4546 0.173292C13.0367 0.495121 11.6745 0.977863 10.399 1.60295L10.9439 5.2916L8.00905 7.53821L4.59124 6.07142C3.6501 7.1483 2.8328 8.3304 2.1579 9.61153L4.76461 12.2728L3.71202 15.8067L0.0774953 16.6299C0.00938662 17.3602 -0.0153801 18.109 0.00938663 18.8703C0.0341534 19.5634 0.0960703 20.2442 0.188946 20.9188L3.86681 21.5377L5.09896 25.016L2.63466 27.8196C3.37767 29.0574 4.26308 30.2085 5.25994 31.2297L8.59727 29.5649L11.6498 31.6506L11.303 35.3702C12.6095 35.921 13.9902 36.3418 15.4267 36.5832L17.148 33.2659L20.8444 33.1607L22.7515 36.3728C24.1694 36.0448 25.5254 35.5558 26.8008 34.9246L26.2436 31.2359L29.1723 28.9769L32.5963 30.4437C33.5374 29.3606 34.3547 28.1724 35.0234 26.8974L32.4043 24.2485L33.4383 20.696L37.0791 19.8729C37.141 19.1612 37.1595 18.4309 37.1348 17.6944ZM24.0641 24.5332C20.6153 27.5596 15.3524 27.2378 12.3123 23.772C9.28454 20.3123 9.6189 15.0579 13.0801 12.0314C16.5226 8.98644 21.7856 9.32683 24.8195 12.7803C27.872 16.24 27.5191 21.5068 24.0641 24.5332Z" fill="#005934"/>
<g opacity="0.5">
<path d="M71.7945 50.0913C71.7724 49.2423 71.6914 48.4005 71.5662 47.5736L67.1925 46.85L65.7125 42.7006L68.6283 39.3485C67.7447 37.8719 66.6918 36.5207 65.5063 35.2951L61.5449 37.2886L57.9074 34.8078L58.2977 30.3777C56.7882 29.7501 55.1977 29.2702 53.541 28.9823L51.4793 32.925L47.0834 33.0284L44.8229 29.189C43.1367 29.5729 41.5168 30.1488 40 30.8946L40.648 35.2951L37.1578 37.9752L33.0933 36.2254C31.9741 37.5101 31.0021 38.9203 30.1995 40.4487L33.2994 43.6235L32.0477 47.8394L27.7255 48.8214C27.6445 49.6926 27.615 50.586 27.6445 51.4942C27.6739 52.3211 27.7475 53.1333 27.858 53.9381L32.2318 54.6764L33.6971 58.8259L30.7665 62.1705C31.6501 63.6472 32.703 65.0205 33.8885 66.2388L37.8573 64.2527L41.4874 66.7409L41.075 71.1783C42.6287 71.8354 44.2707 72.3375 45.979 72.6254L48.0259 68.6679L52.4218 68.5424L54.6897 72.3744C56.3759 71.9831 57.9884 71.3998 59.5052 70.6467L58.8426 66.2462L62.3254 63.5512L66.3972 65.3011C67.5165 64.009 68.4884 62.5914 69.2836 61.0704L66.169 57.9103L67.3986 53.6723L71.7282 52.6903C71.8019 51.8412 71.824 50.97 71.7945 50.0913ZM56.2507 58.25C52.1494 61.8604 45.8906 61.4765 42.2752 57.3418C38.6746 53.2145 39.0722 46.946 43.1883 43.3356C47.2823 39.7029 53.541 40.109 57.149 44.2289C60.7791 48.3562 60.3594 54.6395 56.2507 58.25Z" fill="#005934"/>
</g>
</svg>
