<svg width="25" height="24" viewBox="0 0 25 24" fill="none" xmlns="http://www.w3.org/2000/svg">
<g clip-path="url(#clip0_14_255)">
<path d="M12.7664 0C10.3534 0 7.99471 0.703788 5.98844 2.02236C3.98216 3.34094 2.41846 5.21509 1.49508 7.4078C0.571692 9.60051 0.330092 12.0133 0.800831 14.3411C1.27157 16.6689 2.4335 18.8071 4.1397 20.4853C5.84589 22.1635 8.01972 23.3064 10.3863 23.7694C12.7528 24.2324 15.2058 23.9948 17.4351 23.0866C19.6643 22.1783 21.5697 20.6402 22.9103 18.6668C24.2508 16.6935 24.9663 14.3734 24.9663 12C24.9663 8.8174 23.681 5.76516 21.393 3.51472C19.1051 1.26428 16.002 0 12.7664 0V0ZM19.798 16.6964C19.4431 16.7455 17.7074 16.6964 17.6172 16.6964C17.1685 16.7022 16.7356 16.5336 16.4125 16.2273C16.0465 15.8795 15.7193 15.4977 15.3616 15.1364C15.2562 15.0254 15.1417 14.9233 15.0192 14.8309C14.7336 14.6155 14.4508 14.6632 14.3163 14.9959C14.2113 15.354 14.138 15.7204 14.0973 16.0909C14.0737 16.4264 13.8574 16.6364 13.4748 16.6595C13.2377 16.6718 13.0007 16.6773 12.7664 16.6705C11.9124 16.6659 11.0718 16.4616 10.3139 16.0745C9.49361 15.6254 8.77887 15.0111 8.21634 14.2718C7.29164 13.11 6.55271 11.8336 5.8928 10.5177C5.85814 10.4509 5.1816 9.03545 5.16496 8.96864C5.10396 8.74636 5.16497 8.53227 5.35212 8.45727C5.47135 8.41227 7.70062 8.45727 7.73805 8.45727C7.9039 8.45616 8.06581 8.50696 8.20039 8.60231C8.33496 8.69767 8.43522 8.83264 8.48668 8.98773C8.89914 10.0254 9.46332 10.9984 10.1614 11.8759C10.2592 11.9928 10.3736 12.0952 10.5011 12.18C10.6827 12.3027 10.8546 12.2605 10.9294 12.0532C11.0183 11.7675 11.0704 11.472 11.0847 11.1736C11.0972 10.5818 11.0847 10.1932 11.0514 9.60136C11.0293 9.22227 10.8934 8.89091 10.325 8.78318C10.1503 8.75182 10.1351 8.61 10.2474 8.46818C10.4817 8.175 10.8019 8.12727 11.161 8.10955C11.6961 8.07955 12.2312 8.1 12.7664 8.10955H12.8828C13.1157 8.10871 13.3481 8.13202 13.576 8.17909C13.7109 8.20617 13.8332 8.27534 13.9249 8.37632C14.0166 8.4773 14.0727 8.60469 14.0848 8.73954C14.1123 8.88886 14.1239 9.04059 14.1195 9.19227C14.1056 9.83727 14.0737 10.4836 14.0668 11.1286C14.0603 11.3846 14.0841 11.6404 14.1375 11.8909C14.2137 12.2345 14.4536 12.3205 14.692 12.0723C15.0011 11.7522 15.2843 11.4088 15.5391 11.0455C15.9907 10.3831 16.3629 9.67155 16.6482 8.925C16.8034 8.54182 16.9254 8.45727 17.3414 8.45727H19.7065C19.8471 8.45485 19.9873 8.47323 20.1224 8.51182C20.1702 8.52418 20.2149 8.54611 20.2537 8.57625C20.2925 8.60638 20.3245 8.64407 20.3478 8.68696C20.3711 8.72984 20.3852 8.77699 20.3891 8.82546C20.393 8.87393 20.3867 8.92268 20.3706 8.96864C20.2541 9.47864 19.9741 9.91364 19.6774 10.3323C19.1963 11.0018 18.6889 11.655 18.1967 12.3164C18.1375 12.4019 18.0834 12.4907 18.0345 12.5823C17.8488 12.9123 17.8626 13.0964 18.1316 13.3691C18.5614 13.8041 19.0202 14.2105 19.4348 14.6577C19.7388 14.9832 20.0134 15.334 20.2555 15.7064C20.5508 16.1755 20.3636 16.6173 19.798 16.6964Z" fill="white"/>
</g>
<defs>
<clipPath id="clip0_14_255">
<rect width="24.3999" height="24" fill="white" transform="translate(0.566406)"/>
</clipPath>
</defs>
</svg>
