<svg width="25" height="24" viewBox="0 0 25 24" fill="none" xmlns="http://www.w3.org/2000/svg">
<g clip-path="url(#clip0_14_248)">
<path d="M17.098 8.50298L10.9107 13.4775L10.6195 13.7121C10.5556 13.7619 10.5138 13.8343 10.5031 13.9139L10.4379 14.443L10.2591 15.9293C10.2607 15.9474 10.255 15.9654 10.2432 15.9794C10.2314 15.9933 10.2144 16.002 10.196 16.0037C10.1776 16.0053 10.1593 15.9997 10.1452 15.988C10.131 15.9764 10.1221 15.9597 10.1204 15.9416L9.6172 14.4553L9.09731 12.9348C9.07513 12.8667 9.07797 12.793 9.10533 12.7267C9.13269 12.6605 9.18284 12.6057 9.24704 12.5721L15.6853 8.94207L16.8969 8.26025C17.073 8.15934 17.2532 8.37753 17.098 8.50298Z" fill="white"/>
<path d="M12.2 0C9.78704 0 7.4283 0.703788 5.42203 2.02236C3.41576 3.34094 1.85206 5.21509 0.928672 7.4078C0.00528609 9.60051 -0.236314 12.0133 0.234424 14.3411C0.705163 16.6689 1.8671 18.8071 3.57329 20.4853C5.27949 22.1635 7.45331 23.3064 9.81987 23.7694C12.1864 24.2324 14.6394 23.9948 16.8687 23.0866C19.0979 22.1783 21.0033 20.6402 22.3439 18.6668C23.6844 16.6935 24.3999 14.3734 24.3999 12C24.3999 8.8174 23.1146 5.76516 20.8266 3.51472C18.5387 1.26428 15.4356 0 12.2 0V0ZM19.8097 6.94636L17.4279 17.2977C17.3156 17.7832 16.689 18.0027 16.2495 17.7068L12.6533 15.3068L10.8219 17.01C10.7472 17.0789 10.6566 17.1289 10.5579 17.1555C10.4591 17.1822 10.3552 17.1848 10.2552 17.163C10.1553 17.1412 10.0622 17.0958 9.98409 17.0306C9.90599 16.9655 9.84525 16.8826 9.80711 16.7891L9.14582 14.88L8.48452 12.9709L4.9396 12.0164C4.84049 11.9951 4.7513 11.9422 4.6859 11.8659C4.6205 11.7896 4.58256 11.6942 4.57798 11.5945C4.57339 11.4948 4.60242 11.3964 4.66055 11.3147C4.71867 11.2329 4.80264 11.1723 4.8994 11.1423L18.5939 6.28909L18.8462 6.20045C19.3771 6.01773 19.9261 6.44045 19.8097 6.94636Z" fill="white"/>
</g>
<defs>
<clipPath id="clip0_14_248">
<rect width="24.3999" height="24" fill="white"/>
</clipPath>
</defs>
</svg>
