<svg width="25" height="24" viewBox="0 0 25 24" fill="none" xmlns="http://www.w3.org/2000/svg">
<g clip-path="url(#clip0_14_260)">
<path d="M14.6684 12C14.6684 13.2686 13.6229 14.2969 12.3332 14.2969C11.0435 14.2969 9.99805 13.2686 9.99805 12C9.99805 10.7314 11.0435 9.70312 12.3332 9.70312C13.6229 9.70312 14.6684 10.7314 14.6684 12Z" fill="white"/>
<path d="M17.7943 7.93671C17.682 7.63751 17.5029 7.3667 17.2703 7.14441C17.0443 6.91553 16.7691 6.73938 16.4648 6.62897C16.2179 6.53467 15.8471 6.42242 15.1641 6.39185C14.4252 6.3587 14.2037 6.35156 12.3332 6.35156C10.4625 6.35156 10.2409 6.35852 9.50228 6.39166C8.81926 6.42242 8.44825 6.53467 8.20159 6.62897C7.89723 6.73938 7.6219 6.91553 7.39609 7.14441C7.16339 7.3667 6.98431 7.63733 6.87187 7.93671C6.776 8.1795 6.66189 8.54443 6.6308 9.21625C6.5971 9.94281 6.58984 10.1607 6.58984 12.0007C6.58984 13.8406 6.5971 14.0585 6.6308 14.7852C6.66189 15.457 6.776 15.8218 6.87187 16.0646C6.98431 16.364 7.16321 16.6346 7.39591 16.8569C7.6219 17.0858 7.89704 17.2619 8.20141 17.3723C8.44825 17.4668 8.81926 17.579 9.50228 17.6096C10.2409 17.6428 10.4623 17.6497 12.333 17.6497C14.2039 17.6497 14.4254 17.6428 15.1639 17.6096C15.8469 17.579 16.2179 17.4668 16.4648 17.3723C17.0757 17.1405 17.5586 16.6655 17.7943 16.0646C17.8902 15.8218 18.0043 15.457 18.0355 14.7852C18.0692 14.0585 18.0763 13.8406 18.0763 12.0007C18.0763 10.1607 18.0692 9.94281 18.0355 9.21625C18.0045 8.54443 17.8903 8.1795 17.7943 7.93671ZM12.3332 15.5389C10.3463 15.5389 8.73568 13.9548 8.73568 12.0005C8.73568 10.0463 10.3463 8.46222 12.3332 8.46222C14.3198 8.46222 15.9305 10.0463 15.9305 12.0005C15.9305 13.9548 14.3198 15.5389 12.3332 15.5389ZM16.0727 9.14923C15.6084 9.14923 15.232 8.77899 15.232 8.32233C15.232 7.86566 15.6084 7.49542 16.0727 7.49542C16.537 7.49542 16.9134 7.86566 16.9134 8.32233C16.9132 8.77899 16.537 9.14923 16.0727 9.14923Z" fill="white"/>
<path d="M12.3333 0C5.59646 0 0.133301 5.3736 0.133301 12C0.133301 18.6264 5.59646 24 12.3333 24C19.0702 24 24.5333 18.6264 24.5333 12C24.5333 5.3736 19.0702 0 12.3333 0ZM19.2965 14.8409C19.2626 15.5744 19.1441 16.0752 18.9709 16.5135C18.607 17.4391 17.8631 18.1708 16.9221 18.5288C16.4766 18.6991 15.9673 18.8156 15.2217 18.8491C14.4747 18.8826 14.236 18.8906 12.3335 18.8906C10.4308 18.8906 10.1923 18.8826 9.44508 18.8491C8.69952 18.8156 8.19019 18.6991 7.74472 18.5288C7.27709 18.3558 6.85377 18.0846 6.50379 17.7339C6.14749 17.3899 5.87179 16.9733 5.69587 16.5135C5.52274 16.0754 5.40416 15.5744 5.37028 14.8411C5.33584 14.1061 5.32784 13.8713 5.32784 12C5.32784 10.1287 5.33584 9.89392 5.37009 9.15912C5.40398 8.4256 5.52237 7.9248 5.6955 7.48645C5.87142 7.02667 6.1473 6.61011 6.50379 6.26605C6.85358 5.91541 7.27709 5.64423 7.74453 5.47119C8.19019 5.3009 8.69933 5.18445 9.44508 5.15094C10.1921 5.11743 10.4308 5.10938 12.3333 5.10938C14.2358 5.10938 14.4745 5.11743 15.2215 5.15112C15.9673 5.18445 16.4764 5.3009 16.9221 5.47101C17.3895 5.64404 17.813 5.91541 18.163 6.26605C18.5193 6.61029 18.7952 7.02667 18.9709 7.48645C19.1443 7.9248 19.2626 8.4256 19.2967 9.15912C19.3308 9.89392 19.3388 10.1287 19.3388 12C19.3388 13.8713 19.3308 14.1061 19.2965 14.8409Z" fill="white"/>
</g>
<defs>
<clipPath id="clip0_14_260">
<rect width="24.4" height="24" fill="white" transform="translate(0.133301)"/>
</clipPath>
</defs>
</svg>
