<svg width="26" height="24" viewBox="0 0 26 24" fill="none" xmlns="http://www.w3.org/2000/svg">
<g clip-path="url(#clip0_14_538)">
<path d="M15.4018 12C15.4018 13.2686 14.3563 14.2969 13.0666 14.2969C11.7769 14.2969 10.7314 13.2686 10.7314 12C10.7314 10.7314 11.7769 9.70312 13.0666 9.70312C14.3563 9.70312 15.4018 10.7314 15.4018 12Z" fill="white"/>
<path d="M18.5277 7.93671C18.4154 7.63751 18.2363 7.3667 18.0037 7.14441C17.7777 6.91553 17.5025 6.73938 17.1981 6.62897C16.9513 6.53467 16.5805 6.42242 15.8975 6.39185C15.1586 6.3587 14.9371 6.35156 13.0666 6.35156C11.1959 6.35156 10.9743 6.35852 10.2357 6.39166C9.55266 6.42242 9.18165 6.53467 8.93499 6.62897C8.63063 6.73938 8.3553 6.91553 8.12949 7.14441C7.89679 7.3667 7.71771 7.63733 7.60527 7.93671C7.5094 8.1795 7.39529 8.54443 7.3642 9.21625C7.3305 9.94281 7.32324 10.1607 7.32324 12.0007C7.32324 13.8406 7.3305 14.0585 7.3642 14.7852C7.39529 15.457 7.5094 15.8218 7.60527 16.0646C7.71771 16.364 7.89661 16.6346 8.1293 16.8569C8.3553 17.0858 8.63044 17.2619 8.93481 17.3723C9.18165 17.4668 9.55266 17.579 10.2357 17.6096C10.9743 17.6428 11.1957 17.6497 13.0664 17.6497C14.9373 17.6497 15.1588 17.6428 15.8973 17.6096C16.5803 17.579 16.9513 17.4668 17.1981 17.3723C17.8091 17.1405 18.292 16.6655 18.5277 16.0646C18.6236 15.8218 18.7377 15.457 18.7689 14.7852C18.8026 14.0585 18.8097 13.8406 18.8097 12.0007C18.8097 10.1607 18.8026 9.94281 18.7689 9.21625C18.7379 8.54443 18.6237 8.1795 18.5277 7.93671ZM13.0666 15.5389C11.0797 15.5389 9.46908 13.9548 9.46908 12.0005C9.46908 10.0463 11.0797 8.46222 13.0666 8.46222C15.0532 8.46222 16.6639 10.0463 16.6639 12.0005C16.6639 13.9548 15.0532 15.5389 13.0666 15.5389ZM16.8061 9.14923C16.3418 9.14923 15.9654 8.77899 15.9654 8.32233C15.9654 7.86566 16.3418 7.49542 16.8061 7.49542C17.2704 7.49542 17.6468 7.86566 17.6468 8.32233C17.6466 8.77899 17.2704 9.14923 16.8061 9.14923Z" fill="white"/>
<path d="M13.0667 0C6.32986 0 0.866699 5.3736 0.866699 12C0.866699 18.6264 6.32986 24 13.0667 24C19.8036 24 25.2667 18.6264 25.2667 12C25.2667 5.3736 19.8036 0 13.0667 0ZM20.0299 14.8409C19.996 15.5744 19.8775 16.0752 19.7043 16.5135C19.3404 17.4391 18.5965 18.1708 17.6555 18.5288C17.21 18.6991 16.7007 18.8156 15.9551 18.8491C15.2081 18.8826 14.9694 18.8906 13.0669 18.8906C11.1642 18.8906 10.9257 18.8826 10.1785 18.8491C9.43292 18.8156 8.92359 18.6991 8.47812 18.5288C8.01049 18.3558 7.58717 18.0846 7.23719 17.7339C6.88089 17.3899 6.60519 16.9733 6.42927 16.5135C6.25614 16.0754 6.13756 15.5744 6.10368 14.8411C6.06924 14.1061 6.06124 13.8713 6.06124 12C6.06124 10.1287 6.06924 9.89392 6.10349 9.15912C6.13737 8.4256 6.25577 7.9248 6.4289 7.48645C6.60482 7.02667 6.8807 6.61011 7.23719 6.26605C7.58698 5.91541 8.01049 5.64423 8.47793 5.47119C8.92359 5.3009 9.43273 5.18445 10.1785 5.15094C10.9255 5.11743 11.1642 5.10938 13.0667 5.10938C14.9692 5.10938 15.2079 5.11743 15.9549 5.15112C16.7007 5.18445 17.2098 5.3009 17.6555 5.47101C18.1229 5.64404 18.5464 5.91541 18.8964 6.26605C19.2527 6.61029 19.5286 7.02667 19.7043 7.48645C19.8777 7.9248 19.996 8.4256 20.0301 9.15912C20.0642 9.89392 20.0722 10.1287 20.0722 12C20.0722 13.8713 20.0642 14.1061 20.0299 14.8409Z" fill="white"/>
</g>
<defs>
<clipPath id="clip0_14_538">
<rect width="24.4" height="24" fill="white" transform="translate(0.866699)"/>
</clipPath>
</defs>
</svg>
