<svg width="28" height="28" viewBox="0 0 28 28" fill="none" xmlns="http://www.w3.org/2000/svg">
<g clip-path="url(#clip0_14_555)">
<path d="M16.6858 0.866211C19.3753 0.866211 22.0648 1.88993 24.1122 3.93744C26.1596 5.98488 27.1834 8.67436 27.1834 11.3638" stroke="white" stroke-width="1.5" stroke-miterlimit="10" stroke-linecap="round" stroke-linejoin="round"/>
<path d="M16.6858 5.06543C18.2995 5.06543 19.9132 5.67969 21.1417 6.90814C22.3701 8.1366 22.9844 9.75029 22.9844 11.364" stroke="white" stroke-width="1.5" stroke-miterlimit="10" stroke-linecap="round" stroke-linejoin="round"/>
<path d="M16.6807 9.26319C17.2198 9.26199 17.7593 9.46705 18.1706 9.87842C18.5808 10.2886 18.7858 10.8262 18.7858 11.3637" stroke="white" stroke-width="1.5" stroke-miterlimit="10" stroke-linecap="round" stroke-linejoin="round"/>
<path d="M17.5259 16.4455L14.9947 18.9767L8.97505 12.957L11.5063 10.4258C12.0488 9.8833 12.0488 9.00364 11.5063 8.46111L6.36024 3.3151C5.81771 2.77257 4.93805 2.77257 4.39553 3.3151L2.89344 4.81719C0.125365 7.58526 0.125365 12.0731 2.89344 14.8412L13.1105 25.0582C15.8786 27.8263 20.3664 27.8263 23.1345 25.0582L24.6366 23.5561C25.1791 23.0136 25.1791 22.1339 24.6366 21.5914L19.4906 16.4454C18.948 15.9029 18.0684 15.9029 17.5259 16.4455Z" stroke="white" stroke-width="1.5" stroke-miterlimit="10" stroke-linecap="round" stroke-linejoin="round"/>
<path d="M10.1683 11.7631L3.05762 4.65234" stroke="white" stroke-width="1.5" stroke-miterlimit="10" stroke-linecap="round" stroke-linejoin="round"/>
<path d="M16.1885 17.7827L23.2992 24.8934" stroke="white" stroke-width="1.5" stroke-miterlimit="10" stroke-linecap="round" stroke-linejoin="round"/>
</g>
<defs>
<clipPath id="clip0_14_555">
<rect width="28" height="28" fill="white"/>
</clipPath>
</defs>
</svg>
