<svg width="26" height="24" viewBox="0 0 26 24" fill="none" xmlns="http://www.w3.org/2000/svg">
<g clip-path="url(#clip0_14_526)">
<path d="M17.8314 8.50298L11.6441 13.4775L11.3529 13.7121C11.289 13.7619 11.2472 13.8343 11.2365 13.9139L11.1713 14.443L10.9925 15.9293C10.9941 15.9474 10.9884 15.9654 10.9766 15.9794C10.9648 15.9933 10.9478 16.002 10.9294 16.0037C10.911 16.0053 10.8927 15.9997 10.8786 15.988C10.8644 15.9764 10.8555 15.9597 10.8538 15.9416L10.3506 14.4553L9.83071 12.9348C9.80853 12.8667 9.81137 12.793 9.83873 12.7267C9.86609 12.6605 9.91624 12.6057 9.98044 12.5721L16.4187 8.94207L17.6303 8.26025C17.8064 8.15934 17.9866 8.37753 17.8314 8.50298Z" fill="white"/>
<path d="M12.9334 0C10.5204 0 8.1617 0.703788 6.15543 2.02236C4.14916 3.34094 2.58546 5.21509 1.66207 7.4078C0.738685 9.60051 0.497085 12.0133 0.967823 14.3411C1.43856 16.6689 2.60049 18.8071 4.30669 20.4853C6.01289 22.1635 8.18671 23.3064 10.5533 23.7694C12.9198 24.2324 15.3728 23.9948 17.6021 23.0866C19.8313 22.1783 21.7367 20.6402 23.0773 18.6668C24.4178 16.6935 25.1333 14.3734 25.1333 12C25.1333 8.8174 23.848 5.76516 21.56 3.51472C19.2721 1.26428 16.169 0 12.9334 0V0ZM20.5431 6.94636L18.1613 17.2977C18.049 17.7832 17.4224 18.0027 16.9829 17.7068L13.3867 15.3068L11.5553 17.01C11.4806 17.0789 11.39 17.1289 11.2912 17.1555C11.1925 17.1822 11.0886 17.1848 10.9886 17.163C10.8887 17.1412 10.7956 17.0958 10.7175 17.0306C10.6394 16.9655 10.5786 16.8826 10.5405 16.7891L9.87922 14.88L9.21792 12.9709L5.673 12.0164C5.57389 11.9951 5.4847 11.9422 5.4193 11.8659C5.3539 11.7896 5.31596 11.6942 5.31138 11.5945C5.30679 11.4948 5.33582 11.3964 5.39394 11.3147C5.45207 11.2329 5.53604 11.1723 5.6328 11.1423L19.3273 6.28909L19.5796 6.20045C20.1105 6.01773 20.6595 6.44045 20.5431 6.94636Z" fill="white"/>
</g>
<defs>
<clipPath id="clip0_14_526">
<rect width="24.3999" height="24" fill="white" transform="translate(0.733398)"/>
</clipPath>
</defs>
</svg>
