<svg width="25" height="24" viewBox="0 0 25 24" fill="none" xmlns="http://www.w3.org/2000/svg">
<g clip-path="url(#clip0_14_533)">
<path d="M12.4998 0C10.0868 0 7.72811 0.703788 5.72184 2.02236C3.71556 3.34094 2.15186 5.21509 1.22848 7.4078C0.305091 9.60051 0.0634908 12.0133 0.534229 14.3411C1.00497 16.6689 2.1669 18.8071 3.8731 20.4853C5.57929 22.1635 7.75312 23.3064 10.1197 23.7694C12.4862 24.2324 14.9392 23.9948 17.1685 23.0866C19.3977 22.1783 21.3031 20.6402 22.6437 18.6668C23.9842 16.6935 24.6997 14.3734 24.6997 12C24.6997 8.8174 23.4144 5.76516 21.1264 3.51472C18.8385 1.26428 15.7354 0 12.4998 0V0ZM19.5314 16.6964C19.1765 16.7455 17.4408 16.6964 17.3506 16.6964C16.9019 16.7022 16.469 16.5336 16.1459 16.2273C15.7799 15.8795 15.4527 15.4977 15.095 15.1364C14.9896 15.0254 14.8751 14.9233 14.7526 14.8309C14.467 14.6155 14.1842 14.6632 14.0497 14.9959C13.9447 15.354 13.8714 15.7204 13.8307 16.0909C13.8071 16.4264 13.5908 16.6364 13.2082 16.6595C12.9711 16.6718 12.7341 16.6773 12.4998 16.6705C11.6458 16.6659 10.8052 16.4616 10.0473 16.0745C9.22701 15.6254 8.51227 15.0111 7.94974 14.2718C7.02504 13.11 6.28611 11.8336 5.6262 10.5177C5.59154 10.4509 4.915 9.03545 4.89836 8.96864C4.83736 8.74636 4.89836 8.53227 5.08552 8.45727C5.20475 8.41227 7.43401 8.45727 7.47145 8.45727C7.6373 8.45616 7.79921 8.50696 7.93379 8.60231C8.06836 8.69767 8.16862 8.83264 8.22008 8.98773C8.63254 10.0254 9.19672 10.9984 9.8948 11.8759C9.99259 11.9928 10.107 12.0952 10.2345 12.18C10.4161 12.3027 10.588 12.2605 10.6628 12.0532C10.7517 11.7675 10.8038 11.472 10.8181 11.1736C10.8306 10.5818 10.8181 10.1932 10.7848 9.60136C10.7627 9.22227 10.6268 8.89091 10.0584 8.78318C9.88371 8.75182 9.86846 8.61 9.98076 8.46818C10.2151 8.175 10.5353 8.12727 10.8944 8.10955C11.4295 8.07955 11.9646 8.1 12.4998 8.10955H12.6162C12.8491 8.10871 13.0815 8.13202 13.3094 8.17909C13.4443 8.20617 13.5666 8.27534 13.6583 8.37632C13.75 8.4773 13.8061 8.60469 13.8182 8.73954C13.8457 8.88886 13.8573 9.04059 13.8529 9.19227C13.839 9.83727 13.8071 10.4836 13.8002 11.1286C13.7937 11.3846 13.8175 11.6404 13.8709 11.8909C13.9471 12.2345 14.187 12.3205 14.4254 12.0723C14.7345 11.7522 15.0177 11.4088 15.2725 11.0455C15.7241 10.3831 16.0963 9.67155 16.3816 8.925C16.5368 8.54182 16.6588 8.45727 17.0748 8.45727H19.4399C19.5805 8.45485 19.7207 8.47323 19.8558 8.51182C19.9036 8.52418 19.9483 8.54611 19.9871 8.57625C20.0259 8.60638 20.0579 8.64407 20.0812 8.68696C20.1045 8.72984 20.1186 8.77699 20.1225 8.82546C20.1264 8.87393 20.1201 8.92268 20.104 8.96864C19.9875 9.47864 19.7075 9.91364 19.4108 10.3323C18.9297 11.0018 18.4223 11.655 17.9301 12.3164C17.8709 12.4019 17.8168 12.4907 17.7679 12.5823C17.5822 12.9123 17.596 13.0964 17.865 13.3691C18.2948 13.8041 18.7536 14.2105 19.1682 14.6577C19.4722 14.9832 19.7468 15.334 19.9889 15.7064C20.2842 16.1755 20.097 16.6173 19.5314 16.6964Z" fill="white"/>
</g>
<defs>
<clipPath id="clip0_14_533">
<rect width="24.3999" height="24" fill="white" transform="translate(0.299805)"/>
</clipPath>
</defs>
</svg>
